# xmcd
#
# Track frame offsets:
#	150
#	15572
#	29579
#	45346
#	59533
#	85453
#	94959
#	111067
#	130455
#	147649
#	169263
#	189094
#	201032
#
# Disc length: 2928 seconds
#
# Revision: 1
# Processed by: cddbd v1.5.1PL0 Copyright (c) Steve Scherf et al.
# Submitted via: audiograbber 1.83.01
#
DISCID=b70b6e0d
DTITLE=Petr Ulièný - New Country
DYEAR=1900
DGENRE=
TTITLE0=New Country
TTITLE1=Biely kvet
TTITLE2=Tears In Heaven
TTITLE3=Od piesne k piesni
TTITLE4=Ashokan Farewell
TTITLE5=Black Bird
TTITLE6=Zostaò
TTITLE7=Every Breath You Take
TTITLE8=Èakanie
TTITLE9=Ó, rodný kraj
TTITLE10=Show Must Go On
TTITLE11=Ako obrázok
TTITLE12=I'll Be There
EXTD=
EXTT0=
EXTT1=
EXTT2=
EXTT3=
EXTT4=
EXTT5=
EXTT6=
EXTT7=
EXTT8=
EXTT9=
EXTT10=
EXTT11=
EXTT12=
PLAYORDER=
